<svg id="visual" viewBox="0 0 1920 1080" width="1920" height="1080" xmlns="http://www.w3.org/2000/svg" xmlns:xlink="http://www.w3.org/1999/xlink" version="1.1"><rect x="0" y="0" width="1920" height="1080" fill="#1c1c1e"></rect><path d="M0 476L17.8 467.7C35.7 459.3 71.3 442.7 106.8 432.7C142.3 422.7 177.7 419.3 213.2 415.2C248.7 411 284.3 406 320 446.2C355.7 486.3 391.3 571.7 426.8 581.3C462.3 591 497.7 525 533.2 516.3C568.7 507.7 604.3 556.3 640 586C675.7 615.7 711.3 626.3 746.8 639C782.3 651.7 817.7 666.3 853.2 672.2C888.7 678 924.3 675 960 667.7C995.7 660.3 1031.3 648.7 1066.8 645C1102.3 641.3 1137.7 645.7 1173.2 622C1208.7 598.3 1244.3 546.7 1280 521.2C1315.7 495.7 1351.3 496.3 1386.8 478.2C1422.3 460 1457.7 423 1493.2 408.8C1528.7 394.7 1564.3 403.3 1600 435.3C1635.7 467.3 1671.3 522.7 1706.8 522.3C1742.3 522 1777.7 466 1813.2 449.7C1848.7 433.3 1884.3 456.7 1902.2 468.3L1920 480L1920 1081L1902.2 1081C1884.3 1081 1848.7 1081 1813.2 1081C1777.7 1081 1742.3 1081 1706.8 1081C1671.3 1081 1635.7 1081 1600 1081C1564.3 1081 1528.7 1081 1493.2 1081C1457.7 1081 1422.3 1081 1386.8 1081C1351.3 1081 1315.7 1081 1280 1081C1244.3 1081 1208.7 1081 1173.2 1081C1137.7 1081 1102.3 1081 1066.8 1081C1031.3 1081 995.7 1081 960 1081C924.3 1081 888.7 1081 853.2 1081C817.7 1081 782.3 1081 746.8 1081C711.3 1081 675.7 1081 640 1081C604.3 1081 568.7 1081 533.2 1081C497.7 1081 462.3 1081 426.8 1081C391.3 1081 355.7 1081 320 1081C284.3 1081 248.7 1081 213.2 1081C177.7 1081 142.3 1081 106.8 1081C71.3 1081 35.7 1081 17.8 1081L0 1081Z" fill="#ffffff" stroke-linecap="round" stroke-linejoin="miter"></path></svg>